<svg xmlns="http://www.w3.org/2000/svg" viewBox="0 0 512 512">
  <defs>
    <linearGradient id="bg" x1="0" y1="0" x2="1" y2="1">
      <stop offset="0%" stop-color="#FFB85C"/>
      <stop offset="100%" stop-color="#F37820"/>
    </linearGradient>
  </defs>
  <rect width="512" height="512" rx="96" fill="url(#bg)"/>
  <!-- Owl, scaled into a 512 canvas -->
  <g transform="translate(76 60) scale(1.8)">
    <ellipse cx="42" cy="115" rx="22" ry="34" fill="#8B5A2B"/>
    <ellipse cx="158" cy="115" rx="22" ry="34" fill="#8B5A2B"/>
    <ellipse cx="100" cy="125" rx="58" ry="55" fill="#A67242"/>
    <ellipse cx="100" cy="135" rx="42" ry="42" fill="#FFE4C7"/>
    <ellipse cx="100" cy="80" rx="62" ry="58" fill="#A67242"/>
    <path d="M 50 35 L 60 55 L 70 40 Z" fill="#8B5A2B"/>
    <path d="M 150 35 L 140 55 L 130 40 Z" fill="#8B5A2B"/>
    <ellipse cx="100" cy="85" rx="50" ry="46" fill="#FFE4C7"/>
    <circle cx="78" cy="78" r="20" fill="#fff" stroke="#2A1810" stroke-width="3"/>
    <circle cx="122" cy="78" r="20" fill="#fff" stroke="#2A1810" stroke-width="3"/>
    <circle cx="78" cy="80" r="11" fill="#2A1810"/>
    <circle cx="122" cy="80" r="11" fill="#2A1810"/>
    <circle cx="82" cy="76" r="3.5" fill="#fff"/>
    <circle cx="126" cy="76" r="3.5" fill="#fff"/>
    <path d="M 100 92 L 92 108 Q 100 113 108 108 Z" fill="#FF9933" stroke="#2A1810" stroke-width="2" stroke-linejoin="round"/>
    <circle cx="62" cy="100" r="7" fill="#FF6F91" opacity="0.5"/>
    <circle cx="138" cy="100" r="7" fill="#FF6F91" opacity="0.5"/>
    <!-- Graduation cap -->
    <rect x="60" y="22" width="80" height="8" fill="#2A1810"/>
    <path d="M 100 18 L 152 28 L 100 38 L 48 28 Z" fill="#2A1810"/>
    <circle cx="152" cy="28" r="4" fill="#FFD43B"/>
  </g>
</svg>
